PathFileType  4	(X/Y/Z) C:\Users\antoi\Documents\MyRepositories\mobilecap\ResultsAnalysis
DataRate	CameraRate	NumFrames	NumMarkers	Units	OrigDataRate	OrigDataStartFrame	OrigNumFrames
100.0	100.0	4	51	mm	100.0	967	1288
Frame#	Time	r_knee			r_shank_antsup			r_ankle			r_calc			r_5meta			r_toe			L_knee			L_shank_antsup			L_ankle			L_calc			L_5meta			L_toe			r_sh2			r_sh3			r_sh4			L_sh2			L_sh3			r_thigh1			r_thigh2			r_thigh3			r_thigh4			r_thigh5			L_thigh1			L_thigh2			L_thigh3			L_thigh4			r.ASIS			r.PSIS			L.ASIS			L.PSIS			C7			R_Shoulder			L_Shoulder			R_Sternum			L_Sternum			R_humerus			R_elbow_med			R_elbow_lat			R_forearm			R_wrist_radius			R_wrist_ulna			L_humerus			L_elbow_med			L_elbow_lat			L_forearm			L_wrist_radius			L_wrist_ulna			R_HJC			L_HJC			R_HJC_reg			L_HJC_reg			
		X1	Y1	Z1	X2	Y2	Z2	X3	Y3	Z3	X4	Y4	Z4	X5	Y5	Z5	X6	Y6	Z6	X7	Y7	Z7	X8	Y8	Z8	X9	Y9	Z9	X10	Y10	Z10	X11	Y11	Z11	X12	Y12	Z12	X13	Y13	Z13	X14	Y14	Z14	X15	Y15	Z15	X16	Y16	Z16	X17	Y17	Z17	X18	Y18	Z18	X19	Y19	Z19	X20	Y20	Z20	X21	Y21	Z21	X22	Y22	Z22	X23	Y23	Z23	X24	Y24	Z24	X25	Y25	Z25	X26	Y26	Z26	X27	Y27	Z27	X28	Y28	Z28	X29	Y29	Z29	X30	Y30	Z30	X31	Y31	Z31	X32	Y32	Z32	X33	Y33	Z33	X34	Y34	Z34	X35	Y35	Z35	X36	Y36	Z36	X37	Y37	Z37	X38	Y38	Z38	X39	Y39	Z39	X40	Y40	Z40	X41	Y41	Z41	X42	Y42	Z42	X43	Y43	Z43	X44	Y44	Z44	X45	Y45	Z45	X46	Y46	Z46	X47	Y47	Z47	X48	Y48	Z48	X49	Y49	Z49	X50	Y50	Z50	X51	Y51	Z51	

967	9.66000000	-159.15011	448.54377	-390.10785	-161.10478	376.88986	-360.91456	-271.90890	93.24583	-394.52399	-336.67169	56.24364	-439.60475	-176.99800	45.28186	-350.09830	-127.43658	66.31043	-399.15183	-165.99122	443.98496	-814.08881	-140.58330	370.55542	-827.67133	-268.57154	92.21563	-791.11643	-338.09898	58.29063	-739.57956	-181.06538	42.25728	-825.37815	-127.98928	65.72299	-774.39313	-198.42057	269.17985	-355.66740	-227.51643	397.93805	-386.09402	-272.61904	291.56862	-385.61865	-223.67027	404.25843	-832.91617	-257.60615	286.99393	-832.72265	-241.70629	734.13948	-436.68344	-184.12887	642.99490	-404.35041	-222.71896	603.97833	-365.28199	-332.69021	698.95395	-379.39537	-278.25672	595.58597	-372.34167	-252.15499	718.27847	-780.47304	-180.55786	602.95923	-807.38659	-354.55163	661.28547	-784.64843	-273.86673	546.17578	-807.62509	-265.12698	825.87849	-461.70650	-430.84563	894.06669	-537.33048	-259.53127	816.98004	-713.16128	-432.65338	888.12806	-645.04496	-219.32325	1295.94365	-585.99627	-155.31835	1235.57695	-433.20618	-146.09613	1240.92654	-750.65476	-108.75116	1200.78022	-567.21567	-109.22160	1201.29070	-609.86719	-198.53868	1012.06285	-335.73612	-243.10191	904.45278	-385.93670	-230.18596	936.00529	-312.50300	-114.28883	931.20975	-326.60444	-6.00646	924.81218	-356.32932	-5.09981	881.50622	-345.14680	-141.60820	1107.85993	-804.88542	-216.88880	898.63606	-766.09629	-228.57566	915.09624	-835.99782	-118.13479	933.16833	-856.10597	-0.99177	946.26162	-845.97962	7.06155	910.01461	-852.50682	-348.44756	772.10992	-486.63574	-341.11137	766.91153	-686.72578	-344.87528	769.12414	-492.66158	-347.65875	759.98035	-658.49139	
968	9.67000000	-161.29880	449.82342	-391.02843	-163.31047	378.19418	-361.59586	-271.99884	93.30652	-394.65244	-336.68692	56.25244	-439.58942	-176.97522	45.31112	-350.24537	-127.43346	66.33194	-399.19463	-168.59637	445.31849	-813.26405	-143.31765	372.13262	-826.88666	-268.64092	92.23017	-791.01434	-338.09595	58.31941	-739.61205	-181.07764	42.29737	-825.38767	-128.00467	65.73148	-774.38718	-199.78829	270.09985	-356.06040	-229.86796	398.52161	-387.24398	-274.21052	291.73892	-386.30091	-226.68732	405.08929	-831.60156	-259.68711	287.37602	-831.77432	-239.59100	736.67525	-437.19221	-182.90125	644.72891	-405.07471	-221.92602	606.38328	-365.82799	-330.31267	703.29613	-379.60436	-277.64548	598.89084	-372.82235	-250.21954	720.88724	-780.18090	-180.74875	604.28925	-807.01557	-353.51499	665.69093	-783.87435	-275.01610	549.21702	-806.84146	-261.78474	831.00098	-462.23216	-428.39222	898.33532	-537.12124	-257.21669	822.35948	-713.59187	-430.52643	892.30357	-644.78713	-221.78009	1302.60334	-586.17527	-157.48864	1242.91633	-433.37297	-148.44826	1248.46095	-751.10917	-110.31929	1208.51859	-567.55213	-110.82791	1208.99199	-610.26340	-201.39016	1019.30908	-336.54514	-246.14543	912.05342	-387.28232	-233.31592	943.21497	-313.69482	-117.39701	936.53741	-327.01303	-9.01567	928.42403	-356.20095	-8.86597	885.08863	-344.92753	-143.38279	1115.43482	-805.49125	-218.15060	905.81706	-766.44096	-229.66904	922.33635	-836.11599	-118.93577	939.22566	-856.15864	-1.61947	951.09536	-845.98726	6.05750	914.76042	-852.40002	-344.93920	776.77898	-486.80403	-338.38742	771.74330	-686.92546	-341.44619	774.03283	-492.86754	-344.73080	764.74792	-658.59840	
969	9.68000000	-163.50502	451.04032	-391.97395	-165.54504	379.36614	-362.38283	-272.14082	93.35701	-394.68956	-336.72669	56.22891	-439.54410	-176.96703	45.39853	-350.33817	-127.44394	66.40501	-399.21454	-171.28062	446.56649	-812.21235	-146.02950	373.57777	-825.89768	-268.71824	92.20456	-790.86888	-338.10477	58.31047	-739.62075	-181.10265	42.34958	-825.40529	-128.02196	65.73795	-774.38103	-201.19903	271.11924	-356.51994	-232.28291	399.22417	-388.24191	-275.86145	291.93867	-386.95222	-229.75771	405.96995	-830.43981	-261.62450	287.92409	-830.96653	-237.02888	739.19732	-438.06466	-181.76336	646.30407	-405.78475	-221.17353	608.74591	-366.31849	-327.91733	707.43714	-379.96241	-277.12436	602.16789	-373.17827	-248.27177	723.48768	-780.05117	-180.92738	605.59547	-806.52429	-352.50823	670.04609	-783.09274	-276.17094	552.24356	-805.92847	-258.66521	836.18050	-462.66012	-425.93500	902.46091	-536.90347	-254.97694	827.53333	-713.90805	-428.28027	896.33543	-644.59623	-224.25905	1309.03336	-586.32381	-159.80697	1249.85427	-433.78160	-150.81662	1255.78247	-751.66264	-111.86080	1216.05310	-567.95689	-112.47105	1216.46539	-610.66261	-204.16743	1026.28220	-337.52191	-249.32001	919.43463	-388.62629	-236.44470	950.25794	-314.97638	-120.46046	941.97193	-327.52637	-11.97394	932.12103	-356.07995	-12.45191	888.84606	-344.51294	-145.13519	1122.84409	-806.08436	-218.87428	913.32773	-766.35066	-230.63723	929.41775	-836.37326	-119.54012	945.16597	-856.24099	-2.11124	955.81953	-845.96134	5.13741	919.33696	-851.93967	-341.54201	781.43143	-486.86760	-335.65586	776.38717	-687.01016	-338.17320	778.78624	-493.05690	-341.78000	769.36529	-658.68968	
970	9.69000000	-165.74606	452.08821	-392.75092	-167.90368	380.45477	-363.30667	-272.31850	93.40784	-394.64707	-336.77227	56.18809	-439.48660	-176.95167	45.48058	-350.37944	-127.44287	66.49997	-399.25199	-174.07200	447.75287	-810.93027	-148.78152	374.94527	-824.73540	-268.79599	92.15030	-790.73930	-338.10986	58.26152	-739.60134	-181.10056	42.34754	-825.40319	-128.03599	65.74032	-774.37410	-202.71070	272.05476	-357.18335	-234.82708	399.79510	-388.98320	-277.50501	292.13451	-387.45008	-232.81907	406.81215	-829.28423	-263.51154	288.58972	-830.21822	-233.98803	741.55914	-439.22633	-180.63550	647.76165	-406.68099	-220.48124	610.98036	-366.85023	-325.50234	711.49986	-380.19183	-276.65664	605.31604	-373.45065	-246.32697	726.02769	-779.94291	-181.14632	606.82691	-805.90752	-351.56636	674.31208	-782.33290	-277.32768	555.22891	-805.02396	-255.79396	841.73814	-462.59071	-423.49810	906.49517	-536.67378	-252.72895	832.62388	-714.38419	-425.97528	900.21378	-644.37392	-226.75109	1315.25886	-586.56972	-162.04029	1256.52753	-434.17447	-153.22765	1262.94473	-752.21600	-113.37764	1223.35099	-568.39384	-114.17590	1223.77963	-611.07853	-206.89497	1033.03595	-338.46806	-252.39879	926.58220	-389.85832	-239.53827	957.08368	-316.33414	-123.44381	947.32746	-328.13022	-14.88959	935.81936	-355.93243	-15.89216	892.70418	-343.99604	-146.81220	1130.07307	-806.48877	-219.71107	920.56623	-766.59081	-231.52326	936.29824	-836.81295	-120.05523	951.04546	-856.38287	-2.52251	960.45214	-845.89783	4.31850	923.81444	-851.35049	-338.17038	786.25218	-486.71710	-332.81336	780.91070	-686.86644	-335.01258	783.41072	-492.86278	-338.83075	773.72965	-658.84168	
